<svg width="300" height="300" viewBox="0 0 300 300" fill="none" xmlns="http://www.w3.org/2000/svg">
<path d="M132.627 154.84C131.955 154.84 131.339 154.681 130.779 154.364C130.219 154.028 129.771 153.58 129.435 153.02C129.099 152.46 128.931 151.835 128.931 151.144C128.931 150.453 129.099 149.828 129.435 149.268C129.771 148.708 130.219 148.26 130.779 147.924C131.339 147.588 131.955 147.42 132.627 147.42C133.317 147.42 133.943 147.588 134.503 147.924C135.063 148.26 135.511 148.708 135.847 149.268C136.183 149.828 136.351 150.453 136.351 151.144C136.351 151.835 136.183 152.46 135.847 153.02C135.511 153.58 135.063 154.028 134.503 154.364C133.943 154.681 133.317 154.84 132.627 154.84ZM149.99 154.84C149.318 154.84 148.702 154.681 148.142 154.364C147.582 154.028 147.134 153.58 146.798 153.02C146.462 152.46 146.294 151.835 146.294 151.144C146.294 150.453 146.462 149.828 146.798 149.268C147.134 148.708 147.582 148.26 148.142 147.924C148.702 147.588 149.318 147.42 149.99 147.42C150.68 147.42 151.306 147.588 151.866 147.924C152.426 148.26 152.874 148.708 153.21 149.268C153.546 149.828 153.714 150.453 153.714 151.144C153.714 151.835 153.546 152.46 153.21 153.02C152.874 153.58 152.426 154.028 151.866 154.364C151.306 154.681 150.68 154.84 149.99 154.84ZM167.353 154.84C166.681 154.84 166.065 154.681 165.505 154.364C164.945 154.028 164.497 153.58 164.161 153.02C163.825 152.46 163.657 151.835 163.657 151.144C163.657 150.453 163.825 149.828 164.161 149.268C164.497 148.708 164.945 148.26 165.505 147.924C166.065 147.588 166.681 147.42 167.353 147.42C168.044 147.42 168.669 147.588 169.229 147.924C169.789 148.26 170.237 148.708 170.573 149.268C170.909 149.828 171.077 150.453 171.077 151.144C171.077 151.835 170.909 152.46 170.573 153.02C170.237 153.58 169.789 154.028 169.229 154.364C168.669 154.681 168.044 154.84 167.353 154.84Z" fill="#C3C0AB" fill-opacity="0.5"/>
</svg>
