<svg width="44" height="8" viewBox="0 0 44 8" fill="none" xmlns="http://www.w3.org/2000/svg">
<path d="M4.62655 7.84C3.95455 7.84 3.33855 7.68133 2.77855 7.364C2.21855 7.028 1.77055 6.58 1.43455 6.02C1.09855 5.46 0.930547 4.83467 0.930547 4.144C0.930547 3.45333 1.09855 2.828 1.43455 2.268C1.77055 1.708 2.21855 1.26 2.77855 0.924C3.33855 0.588 3.95455 0.42 4.62655 0.42C5.31721 0.42 5.94255 0.588 6.50255 0.924C7.06255 1.26 7.51055 1.708 7.84655 2.268C8.18255 2.828 8.35055 3.45333 8.35055 4.144C8.35055 4.83467 8.18255 5.46 7.84655 6.02C7.51055 6.58 7.06255 7.028 6.50255 7.364C5.94255 7.68133 5.31721 7.84 4.62655 7.84ZM21.9898 7.84C21.3178 7.84 20.7018 7.68133 20.1418 7.364C19.5818 7.028 19.1338 6.58 18.7978 6.02C18.4618 5.46 18.2938 4.83467 18.2938 4.144C18.2938 3.45333 18.4618 2.828 18.7978 2.268C19.1338 1.708 19.5818 1.26 20.1418 0.924C20.7018 0.588 21.3178 0.42 21.9898 0.42C22.6805 0.42 23.3058 0.588 23.8658 0.924C24.4258 1.26 24.8738 1.708 25.2098 2.268C25.5458 2.828 25.7138 3.45333 25.7138 4.144C25.7138 4.83467 25.5458 5.46 25.2098 6.02C24.8738 6.58 24.4258 7.028 23.8658 7.364C23.3058 7.68133 22.6805 7.84 21.9898 7.84ZM39.3531 7.84C38.6811 7.84 38.0651 7.68133 37.5051 7.364C36.9451 7.028 36.4971 6.58 36.1611 6.02C35.8251 5.46 35.6571 4.83467 35.6571 4.144C35.6571 3.45333 35.8251 2.828 36.1611 2.268C36.4971 1.708 36.9451 1.26 37.5051 0.924C38.0651 0.588 38.6811 0.42 39.3531 0.42C40.0438 0.42 40.6691 0.588 41.2291 0.924C41.7891 1.26 42.2371 1.708 42.5731 2.268C42.9091 2.828 43.0771 3.45333 43.0771 4.144C43.0771 4.83467 42.9091 5.46 42.5731 6.02C42.2371 6.58 41.7891 7.028 41.2291 7.364C40.6691 7.68133 40.0438 7.84 39.3531 7.84Z" fill="#C3C0AB" fill-opacity="0.5"/>
</svg>
