<svg width="23" height="23" viewBox="0 0 23 23" fill="none" xmlns="http://www.w3.org/2000/svg">
<path fill-rule="evenodd" clip-rule="evenodd" d="M15.024 15.2445L15.4466 12.4983H12.8126V10.7173C12.8126 9.96327 13.1816 9.23325 14.3582 9.23325H15.5562V6.89338C15.5562 6.89338 14.4705 6.70892 13.4302 6.70892C11.2616 6.70892 9.84438 8.02452 9.84438 10.4045V12.4983H7.42969V15.2445H9.84438V21.8815C10.3257 21.9591 10.8231 21.9965 11.3258 21.9965C11.8339 21.9965 12.3259 21.9591 12.8126 21.8815V15.2445H15.0241L15.024 15.2445Z" fill="#94B028"/>
<path fill-rule="evenodd" clip-rule="evenodd" d="M11.3159 2.54776C6.22183 2.54776 2.07707 6.68991 2.07707 11.784C2.07707 16.8727 6.22183 21.0175 11.3159 21.0175C16.4046 21.0175 20.5494 16.8727 20.5494 11.784C20.5494 6.68991 16.4046 2.54784 11.3159 2.54784M11.3159 22.8573C5.20837 22.8573 0.237305 17.8862 0.237305 11.784C0.237305 5.67645 5.20837 0.710754 11.3159 0.710754C17.4182 0.710754 22.3892 5.67645 22.3892 11.784C22.3892 17.8862 17.4182 22.8573 11.3159 22.8573Z" fill="#94B028"/>
</svg>
