<svg width="23" height="24" viewBox="0 0 23 24" fill="none" xmlns="http://www.w3.org/2000/svg">
<path fill-rule="evenodd" clip-rule="evenodd" d="M11.4964 0.130859C8.3742 0.130859 7.9826 0.144059 6.7564 0.199959C5.5328 0.255859 4.6971 0.450159 3.9658 0.734359C3.2098 1.02816 2.5687 1.42126 1.9296 2.06036C1.2904 2.69956 0.8973 3.34066 0.6036 4.09656C0.3192 4.82786 0.125 5.66356 0.0691 6.88726C0.0132 8.11346 0 8.50496 0 11.6273C0 14.7495 0.0132 15.141 0.0692 16.3672C0.125 17.5908 0.3193 18.4265 0.6035 19.1578C0.8973 19.9138 1.2904 20.5549 1.9295 21.194C2.5687 21.8332 3.2098 22.2262 3.9658 22.52C4.6971 22.8043 5.5328 22.9986 6.7565 23.0545C7.9826 23.1104 8.3742 23.1236 11.4964 23.1236C14.6186 23.1236 15.0101 23.1104 16.2363 23.0545C17.46 22.9986 18.2957 22.8043 19.027 22.5201C19.783 22.2262 20.424 21.8331 21.0632 21.1941C21.7023 20.5549 22.0954 19.9138 22.3892 19.1578C22.6734 18.4265 22.8678 17.5908 22.9236 16.3672C22.9796 15.141 22.9928 14.7495 22.9928 11.6272C22.9928 8.50496 22.9795 8.11346 22.9236 6.88716C22.8678 5.66356 22.6734 4.82786 22.3892 4.09656C22.0954 3.34056 21.7023 2.69956 21.0632 2.06036C20.4241 1.42126 19.7829 1.02816 19.027 0.734359C18.2957 0.450159 17.46 0.255859 16.2363 0.199959C15.0101 0.143959 14.6186 0.130859 11.4963 0.130859M11.4963 2.20226C14.5661 2.20226 14.9296 2.21396 16.1419 2.26926C17.2628 2.32036 17.8715 2.50766 18.2766 2.66516C18.8132 2.87366 19.1962 3.12276 19.5985 3.52506C20.0008 3.92736 20.2499 4.31036 20.4585 4.84696C20.6159 5.25206 20.8032 5.86076 20.8543 6.98166C20.9096 8.19396 20.9213 8.55756 20.9213 11.6272C20.9213 14.6969 20.9096 15.0605 20.8543 16.2727C20.8032 17.3937 20.6159 18.0024 20.4585 18.4075C20.2499 18.944 20.0008 19.3271 19.5985 19.7293C19.1962 20.1316 18.8132 20.3808 18.2765 20.5893C17.8715 20.7467 17.2628 20.934 16.1419 20.9852C14.9299 21.0405 14.5663 21.0522 11.4964 21.0522C8.4264 21.0522 8.0629 21.0405 6.8509 20.9852C5.7299 20.934 5.1212 20.7467 4.7161 20.5893C4.1795 20.3808 3.7965 20.1316 3.3943 19.7293C2.992 19.3271 2.7428 18.944 2.5343 18.4075C2.3769 18.0024 2.1896 17.3936 2.1384 16.2728C2.0831 15.0605 2.0714 14.6968 2.0714 11.6272C2.0714 8.55756 2.0831 8.19396 2.1384 6.98166C2.1896 5.86076 2.3769 5.25206 2.5343 4.84696C2.7428 4.31036 2.992 3.92736 3.3943 3.52506C3.7965 3.12276 4.1795 2.87366 4.7161 2.66506C5.1212 2.50766 5.73 2.32036 6.8508 2.26926C8.0631 2.21396 8.4267 2.20226 11.4964 2.20226" fill="#94B028"/>
<path fill-rule="evenodd" clip-rule="evenodd" d="M12 16.0182C9.849 16.0182 8.1053 14.2745 8.1053 12.1235C8.1053 9.97254 9.849 8.22884 12 8.22884C14.151 8.22884 15.8948 9.97254 15.8948 12.1235C15.8948 14.2745 14.151 16.0182 12 16.0182ZM12 6.12354C8.6863 6.12354 6 8.80984 6 12.1235C6 15.4372 8.6863 18.1235 12 18.1235C15.3137 18.1235 18 15.4372 18 12.1235C18 8.80984 15.3137 6.12354 12 6.12354Z" fill="#94B028"/>
<path fill-rule="evenodd" clip-rule="evenodd" d="M19 5.62354C19 6.45194 18.3285 7.12354 17.5 7.12354C16.6716 7.12354 16 6.45194 16 5.62354C16 4.79514 16.6716 4.12354 17.5 4.12354C18.3285 4.12354 19 4.79514 19 5.62354Z" fill="#94B028"/>
</svg>
