<svg width="122" height="28" viewBox="0 0 122 28" fill="none" xmlns="http://www.w3.org/2000/svg">
<path d="M90.5181 8.18215C89.0084 8.18215 87.5596 8.79715 86.5074 9.87715V4.16215C86.5074 3.98215 86.3549 3.83215 86.1719 3.83215H84.1284C83.9454 3.83215 83.7929 3.98215 83.7929 4.16215V19.6122C83.7929 19.7922 83.9454 19.9422 84.1284 19.9422H86.1719C86.3549 19.9422 86.5074 19.7922 86.5074 19.6122V18.5472C87.5596 19.6272 88.9931 20.2422 90.5181 20.2422C93.7054 20.2422 96.2826 17.5422 96.2826 14.2122C96.2826 10.8822 93.7054 8.18215 90.5181 8.18215ZM90.0454 17.8272C88.1086 17.8272 86.5379 16.2372 86.5227 14.2572V14.1672C86.5532 12.1872 88.1086 10.5972 90.0454 10.5972C91.9974 10.5972 93.5681 12.2172 93.5681 14.2122C93.5681 16.2072 91.9821 17.8272 90.0454 17.8272ZM103.801 8.18215C100.354 8.18215 97.5636 10.8822 97.5636 14.2122C97.5636 17.5422 100.354 20.2422 103.801 20.2422C107.247 20.2422 110.038 17.5422 110.038 14.2122C110.038 10.8822 107.247 8.18215 103.801 8.18215ZM103.786 17.8272C101.834 17.8272 100.263 16.2072 100.263 14.2122C100.263 12.2172 101.849 10.5972 103.786 10.5972C105.722 10.5972 107.308 12.2172 107.308 14.2122C107.308 16.2072 105.722 17.8272 103.786 17.8272ZM65.6607 8.48215H63.6172C63.4342 8.48215 63.2816 8.63215 63.2816 8.81215V9.87715C62.2294 8.79715 60.7959 8.18215 59.2709 8.18215C56.0837 8.18215 53.5064 10.8822 53.5064 14.2122C53.5064 17.5422 56.0837 20.2422 59.2709 20.2422C60.7807 20.2422 62.2294 19.6272 63.2816 18.5472V19.6122C63.2816 19.7922 63.4342 19.9422 63.6172 19.9422H65.6607C65.8437 19.9422 65.9961 19.7922 65.9961 19.6122V8.81215C65.9961 8.63215 65.8437 8.48215 65.6607 8.48215ZM59.7436 17.8272C57.7916 17.8272 56.2209 16.2072 56.2209 14.2122C56.2209 12.2172 57.8069 10.5972 59.7436 10.5972C61.6804 10.5972 63.2511 12.1872 63.2664 14.1672V14.2572C63.2511 16.2372 61.6804 17.8272 59.7436 17.8272ZM75.8629 8.18215C74.3531 8.18215 72.9044 8.79715 71.8521 9.87715V8.81215C71.8521 8.63215 71.6996 8.48215 71.5167 8.48215H69.4732C69.2901 8.48215 69.1376 8.63215 69.1376 8.81215V24.2622C69.1376 24.4422 69.2901 24.5922 69.4732 24.5922H71.5167C71.6996 24.5922 71.8521 24.4422 71.8521 24.2622V18.5472C72.9044 19.6272 74.3379 20.2422 75.8629 20.2422C79.0501 20.2422 81.6274 17.5422 81.6274 14.2122C81.6274 10.8822 79.0501 8.18215 75.8629 8.18215ZM75.3902 17.8272C73.4534 17.8272 71.8826 16.2372 71.8674 14.2572V14.1672C71.8979 12.1872 73.4534 10.5972 75.3902 10.5972C77.3422 10.5972 78.9129 12.2172 78.9129 14.2122C78.9129 16.2072 77.3422 17.8272 75.3902 17.8272ZM47.3911 8.18215C45.8661 8.19715 44.4784 9.06715 43.8226 10.4322C43.0754 9.03715 41.5809 8.16715 39.9797 8.18215C38.7292 8.18215 37.5549 8.78215 36.8229 9.77215V8.81215C36.8229 8.63215 36.6704 8.48215 36.4874 8.48215H34.4439C34.2609 8.48215 34.1084 8.63215 34.1084 8.81215V19.6122C34.1084 19.7922 34.2609 19.9422 34.4439 19.9422H36.4874C36.6704 19.9422 36.8229 19.7922 36.8229 19.6122V13.1472C36.8991 11.7072 37.9209 10.5522 39.1714 10.5522C40.4676 10.5522 41.5504 11.6172 41.5504 13.0122V19.6122C41.5504 19.7922 41.7029 19.9422 41.8859 19.9422H43.9447C44.1277 19.9422 44.2801 19.7922 44.2801 19.6122L44.2649 12.8922C44.4479 11.5722 45.4086 10.5522 46.5829 10.5522C47.8791 10.5522 48.9619 11.6172 48.9619 13.0122V19.6122C48.9619 19.7922 49.1144 19.9422 49.2974 19.9422H51.3561C51.5391 19.9422 51.6916 19.7922 51.6916 19.6122L51.6764 12.1872C51.6764 9.96715 49.7549 8.18215 47.3911 8.18215ZM121.033 19.4772L117.495 14.1822L121.003 8.93215C121.094 8.79715 121.049 8.60215 120.911 8.51215C120.866 8.48215 120.805 8.46715 120.744 8.46715H118.38C118.197 8.46715 118.029 8.55715 117.938 8.70715L115.879 12.1122L113.82 8.72215C113.729 8.57215 113.561 8.48215 113.378 8.48215H111.014C110.846 8.48215 110.709 8.61715 110.709 8.78215C110.709 8.84215 110.724 8.90215 110.755 8.94715L114.262 14.1972L110.724 19.4922C110.633 19.6272 110.679 19.8222 110.816 19.9122C110.862 19.9422 110.923 19.9572 110.984 19.9572H113.347C113.53 19.9572 113.698 19.8672 113.79 19.7172L115.894 16.2672L117.999 19.7172C118.09 19.8672 118.258 19.9572 118.441 19.9572H120.774C120.942 19.9572 121.079 19.8222 121.079 19.6572C121.079 19.5972 121.064 19.5372 121.033 19.4772Z" fill="#4264FB"/>
<path d="M14.1617 0.877197C6.67399 0.877197 0.604492 6.8472 0.604492 14.2122C0.604492 21.5772 6.67399 27.5472 14.1617 27.5472C21.6495 27.5472 27.719 21.5772 27.719 14.2122C27.719 6.8472 21.6495 0.877197 14.1617 0.877197ZM20.5972 17.4822C15.9612 22.0422 7.68049 20.5872 7.68049 20.5872C7.68049 20.5872 6.18599 12.4572 10.8372 7.8822C13.4145 5.3472 17.6845 5.4522 20.3837 8.0922C23.083 10.7322 23.1745 14.9472 20.5972 17.4822Z" fill="#4264FB"/>
<path d="M15.7176 8.69214L14.3909 11.3771L11.6611 12.6821L14.3909 13.9871L15.7176 16.6721L17.0444 13.9871L19.7741 12.6821L17.0444 11.3771L15.7176 8.69214Z" fill="#4264FB"/>
</svg>
