<svg width="82" height="48" viewBox="0 0 82 48" fill="none" xmlns="http://www.w3.org/2000/svg">
<path d="M49.6531 5.40497H28.8623V42.7667H49.6531V5.40497Z" fill="#FF5F00"/>
<path d="M30.1619 24.0612C30.1586 20.4547 30.9759 16.8947 32.5518 13.6507C34.1278 10.4067 36.4211 7.56376 39.2582 5.33711C35.7449 2.57553 31.5254 0.858156 27.0822 0.381259C22.6389 -0.0956382 18.1511 0.687173 14.1318 2.64025C10.1124 4.59333 6.72361 7.63788 4.35274 11.4259C1.98188 15.2139 0.724609 19.5925 0.724609 24.0612C0.724609 28.53 1.98188 32.9086 4.35274 36.6966C6.72361 40.4846 10.1124 43.5291 14.1318 45.4822C18.1511 47.4353 22.6389 48.2181 27.0822 47.7412C31.5254 47.2643 35.7449 45.5469 39.2582 42.7853C36.4211 40.5587 34.1278 37.7157 32.5519 34.4718C30.9759 31.2278 30.1586 27.6678 30.1619 24.0612Z" fill="#EB001B"/>
<path d="M77.7902 24.0612C77.7904 28.5299 76.5332 32.9085 74.1625 36.6965C71.7918 40.4845 68.4031 43.529 64.3838 45.4821C60.3645 47.4352 55.8768 48.2181 51.4336 47.7412C46.9904 47.2643 42.7711 45.5469 39.2578 42.7853C42.0924 40.5564 44.384 37.713 45.9597 34.4696C47.5353 31.2261 48.3541 27.6672 48.3541 24.0612C48.3541 20.4553 47.5353 16.8964 45.9597 13.6529C44.384 10.4094 42.0924 7.56601 39.2578 5.3371C42.7711 2.57552 46.9904 0.858144 51.4336 0.381253C55.8768 -0.0956384 60.3645 0.687207 64.3838 2.64031C68.4031 4.59341 71.7918 7.63795 74.1625 11.4259C76.5332 15.2139 77.7904 19.5925 77.7902 24.0612Z" fill="#F79E1B"/>
<path d="M79.8587 43.436V42.5776H80.2048V42.4027H79.3232V42.5776H79.6695V43.436H79.8587ZM81.5701 43.436V42.401H81.2999L80.9891 43.1129L80.6782 42.401H80.4078V43.436H80.5986V42.6553L80.8901 43.3284H81.088L81.3795 42.6536V43.436H81.5701Z" fill="#F79E1B"/>
</svg>
