<svg width="82" height="18" viewBox="0 0 82 18" fill="none" xmlns="http://www.w3.org/2000/svg">
<path d="M8.47461 16.5673C7.01352 16.5778 5.55962 16.3619 4.16461 15.9273C2.89768 15.5366 1.7261 14.8861 0.724609 14.0173L3.42461 10.8073C4.19701 11.416 5.07502 11.877 6.01461 12.1673C6.88956 12.436 7.79935 12.5741 8.71461 12.5773C9.05677 12.602 9.39983 12.5437 9.71461 12.4073C9.80335 12.3646 9.87842 12.298 9.93141 12.215C9.9844 12.1319 10.0132 12.0358 10.0146 11.9373C10.0025 11.814 9.95429 11.697 9.87603 11.601C9.79777 11.5049 9.69292 11.4341 9.57461 11.3973C9.04305 11.1864 8.48963 11.0355 7.92461 10.9473C7.07794 10.774 6.26794 10.5707 5.49461 10.3373C4.79228 10.1329 4.11985 9.837 3.49461 9.45733C2.93284 9.11694 2.45717 8.65154 2.10461 8.09733C1.74433 7.49379 1.56392 6.79991 1.58461 6.09733C1.57879 5.40818 1.72207 4.72592 2.00461 4.09733C2.2877 3.47178 2.70812 2.91807 3.23461 2.47733C3.82425 1.99003 4.50374 1.62311 5.23461 1.39733C6.12522 1.12421 7.05318 0.992608 7.98461 1.00733C9.28997 0.960069 10.5949 1.11181 11.8546 1.45733C12.9418 1.78405 13.9591 2.3096 14.8546 3.00733L12.3946 6.41733C11.7038 5.91471 10.9329 5.53264 10.1146 5.28733C9.38265 5.05869 8.62139 4.93742 7.85461 4.92733C7.56756 4.90634 7.2803 4.96518 7.02461 5.09733C6.94305 5.14083 6.87484 5.20567 6.82729 5.28494C6.77973 5.3642 6.75461 5.45489 6.75461 5.54733C6.76681 5.66389 6.81181 5.77461 6.88437 5.86665C6.95694 5.95868 7.05411 6.02827 7.16461 6.06733C7.67818 6.28034 8.2153 6.4314 8.76461 6.51733C9.65634 6.67042 10.538 6.87746 11.4046 7.13733C12.1125 7.35416 12.7859 7.67067 13.4046 8.07733C13.9311 8.4335 14.369 8.90558 14.6846 9.45733C15.0074 10.0517 15.1662 10.7213 15.1446 11.3973C15.156 12.1386 14.9915 12.872 14.6646 13.5373C14.3486 14.1705 13.8899 14.7216 13.3246 15.1473C12.6952 15.606 11.9867 15.945 11.2346 16.1473C10.3392 16.4174 9.40986 16.5588 8.47461 16.5673Z" fill="#FC4C02"/>
<path d="M19.3145 5.45725H14.8545V1.17725H28.8545V5.45725H24.3645V16.2872H19.3145V5.45725Z" fill="#FC4C02"/>
<path d="M29.5244 1.17725H36.8544C37.9823 1.14349 39.1079 1.29898 40.1844 1.63725C40.9696 1.89534 41.6872 2.32585 42.2844 2.89725C42.7188 3.34127 43.0589 3.86849 43.2844 4.44725C43.5246 5.0863 43.6433 5.7646 43.6344 6.44725C43.6661 7.44116 43.3864 8.42013 42.8344 9.24725C42.2783 10.0306 41.5267 10.6547 40.6544 11.0573L44.1744 16.1973H38.4944L35.6444 11.8773H34.5744V16.1973H29.5244V1.17725ZM36.7544 8.36725C37.2575 8.39491 37.756 8.25801 38.1744 7.97725C38.3427 7.85335 38.478 7.69014 38.5686 7.50188C38.6593 7.31363 38.7025 7.10604 38.6944 6.89725C38.7088 6.68619 38.6685 6.47498 38.5774 6.28404C38.4863 6.0931 38.3475 5.92888 38.1744 5.80725C37.7548 5.5486 37.2667 5.42309 36.7744 5.44725H34.5744V8.44725H36.7544V8.36725Z" fill="#FC4C02"/>
<path d="M73.465 9.78729L76.765 16.2873H81.605L73.465 0.227295L65.335 16.2873H70.175L73.465 9.78729Z" fill="#FC4C02"/>
<path d="M50.8351 9.78729L54.1251 16.2873H58.9651L50.8351 0.227295L42.7051 16.2873H47.5451L50.8351 9.78729Z" fill="#FC4C02"/>
<path d="M62.1544 7.67725L58.8644 1.17725H54.0244L62.1544 17.2272L70.2844 1.17725H65.4444L62.1544 7.67725Z" fill="#FC4C02"/>
</svg>
