<svg width="82" height="29" viewBox="0 0 82 29" fill="none" xmlns="http://www.w3.org/2000/svg">
<g clip-path="url(#clip0_75_340)">
<path d="M4.72468 4.40726L5.72468 4.60726C5.68456 5.18324 5.43984 5.7259 5.03468 6.13726C4.83211 6.33235 4.59208 6.48433 4.32911 6.58402C4.06613 6.68371 3.78567 6.72904 3.50468 6.71726C3.17824 6.72823 2.85335 6.66768 2.55277 6.53985C2.2522 6.41202 1.98322 6.22 1.76468 5.97726C1.26896 5.34803 1.02641 4.55618 1.08468 3.75726C1.03935 2.98551 1.2937 2.22605 1.79468 1.63726C2.0087 1.3989 2.27095 1.20877 2.56404 1.07947C2.85712 0.950166 3.17435 0.884647 3.49468 0.887258C4.04012 0.879123 4.56731 1.08355 4.96468 1.45726C5.36823 1.83405 5.61765 2.34715 5.66468 2.89726L4.66468 3.04726C4.67414 2.88567 4.65161 2.72381 4.59839 2.57095C4.54517 2.41809 4.4623 2.27723 4.35454 2.15646C4.24677 2.03569 4.11623 1.93738 3.97039 1.86716C3.82456 1.79694 3.6663 1.75619 3.50468 1.74726C3.31103 1.74952 3.12042 1.7957 2.9472 1.8823C2.77399 1.96891 2.62268 2.0937 2.50468 2.24726C2.19732 2.69171 2.05252 3.22852 2.09468 3.76726C2.05305 4.31708 2.19362 4.86531 2.49468 5.32726C2.60955 5.48562 2.75972 5.61505 2.93329 5.70531C3.10687 5.79557 3.29907 5.84417 3.49468 5.84726C4.20135 5.84726 4.61135 5.36726 4.72468 4.40726Z" fill="#B3B3B3"/>
<path d="M10.3149 6.54727C9.73555 6.76981 9.09428 6.76981 8.51491 6.54727C8.20004 6.42315 7.91755 6.22899 7.68885 5.9795C7.46014 5.73001 7.29123 5.43173 7.19491 5.10727C7.05489 4.66779 6.98734 4.20845 6.99491 3.74727C6.94958 2.97552 7.20393 2.21606 7.70491 1.62727C7.91893 1.38892 8.18118 1.19879 8.47427 1.06948C8.76736 0.94018 9.08458 0.874662 9.40491 0.877272C9.72452 0.876051 10.0407 0.94324 10.3322 1.07433C10.6237 1.20541 10.8837 1.39736 11.0949 1.63727C11.6139 2.21843 11.8865 2.97872 11.8549 3.75727C11.863 4.21849 11.7955 4.67792 11.6549 5.11727C11.5499 5.46514 11.365 5.78362 11.1149 6.04727C10.8866 6.2686 10.6139 6.43901 10.3149 6.54727ZM8.38491 5.32727C8.50515 5.48673 8.66076 5.61609 8.83949 5.70517C9.01823 5.79425 9.21521 5.84061 9.41491 5.84061C9.61462 5.84061 9.81159 5.79425 9.99033 5.70517C10.1691 5.61609 10.3247 5.48673 10.4449 5.32727C10.7482 4.86224 10.8921 4.31122 10.8549 3.75727C10.8909 3.22851 10.7464 2.70318 10.4449 2.26727C10.325 2.1172 10.1729 1.99604 9.99975 1.91277C9.82664 1.82951 9.63701 1.78627 9.44491 1.78627C9.25282 1.78627 9.06319 1.82951 8.89008 1.91277C8.71697 1.99604 8.56482 2.1172 8.44491 2.26727C8.14492 2.7001 8.0004 3.22178 8.03491 3.74727C7.97766 4.29793 8.10047 4.85231 8.38491 5.32727Z" fill="#B3B3B3"/>
<path d="M13.4546 6.59725V0.997253H14.5546L16.2346 4.89725L17.8946 0.997253H18.9846V6.59725H18.0546V2.74725L16.3546 6.59725H16.1146L14.4246 2.74725V6.59725H13.4546Z" fill="#B3B3B3"/>
<path d="M20.9551 6.59725V0.997245H23.1851C23.6899 0.969374 24.1865 1.13373 24.5751 1.45725C24.7536 1.62163 24.8936 1.82336 24.9852 2.04807C25.0768 2.27277 25.1178 2.51492 25.1051 2.75725C25.1173 2.99475 25.0781 3.2321 24.9901 3.45303C24.9021 3.67396 24.7673 3.87325 24.5951 4.03725C24.208 4.36436 23.7112 4.53234 23.2051 4.50725H21.8551V6.58725H20.9551V6.59725ZM21.8951 3.59725H23.1651C23.4106 3.6212 23.6564 3.55353 23.8551 3.40724C23.9447 3.32727 24.0155 3.22835 24.0622 3.11766C24.1089 3.00696 24.1304 2.88727 24.1251 2.76725C24.1366 2.64067 24.1181 2.51315 24.0712 2.39502C24.0243 2.27689 23.9503 2.17146 23.8551 2.08725C23.6565 1.93813 23.4133 1.86059 23.1651 1.86724H21.8551V3.64724L21.8951 3.59725Z" fill="#B3B3B3"/>
<path d="M29.3248 6.59725L28.9848 5.59725H26.7248L26.3948 6.59725H25.4648L27.4648 0.997253H28.2348L30.2348 6.59725H29.3248ZM27.8548 2.36725L27.0048 4.82725H28.7048L27.8548 2.36725Z" fill="#B3B3B3"/>
<path d="M32.0948 6.59725V1.86725H30.4248V0.997253H34.7048V1.86725H33.0448V6.59725H32.0948Z" fill="#B3B3B3"/>
<path d="M36.1445 6.59725V0.997253H37.0845V6.59725H36.1445Z" fill="#B3B3B3"/>
<path d="M39.0842 6.59729V0.99729H41.3842C41.6048 0.989793 41.8247 1.02664 42.0308 1.10566C42.237 1.18467 42.4251 1.30424 42.5842 1.45729C42.7222 1.58547 42.8331 1.74 42.9104 1.91175C42.9877 2.0835 43.0298 2.269 43.0342 2.45729C43.0403 2.68058 42.9823 2.90093 42.8671 3.09231C42.7519 3.28369 42.5844 3.4381 42.3842 3.53729C42.6202 3.64618 42.8262 3.81093 42.9842 4.01729C43.1579 4.25449 43.246 4.54355 43.2342 4.83729C43.2342 5.97729 42.5476 6.54729 41.1742 6.54729H39.0742L39.0842 6.59729ZM40.0242 3.29729H41.2542C41.4702 3.30561 41.6824 3.23843 41.8542 3.10729C41.9282 3.04321 41.9865 2.96301 42.0247 2.87286C42.0628 2.78271 42.0798 2.68502 42.0742 2.58729C42.0814 2.48644 42.0652 2.3853 42.0271 2.29168C41.9889 2.19805 41.9298 2.11444 41.8542 2.04729C41.6753 1.91598 41.4557 1.85221 41.2342 1.86729H40.0342V3.28729L40.0242 3.29729ZM40.0242 5.72729H41.4242C41.5393 5.71888 41.6532 5.69878 41.7642 5.66729C41.8669 5.64236 41.9626 5.5945 42.0442 5.52729C42.1179 5.45693 42.1759 5.37171 42.2142 5.27729C42.2633 5.15326 42.2871 5.02066 42.2842 4.88729C42.301 4.76056 42.2807 4.63167 42.2257 4.51628C42.1706 4.40089 42.0833 4.30397 41.9742 4.23729C41.6583 4.10546 41.3155 4.05062 40.9742 4.07729H39.9742V5.72729H40.0242Z" fill="#B3B3B3"/>
<path d="M44.8545 6.59725V0.997253H45.8545V5.72725H48.2045V6.59725H44.8545Z" fill="#B3B3B3"/>
<path d="M49.6143 6.59725V0.997253H53.1043V1.86725H50.5543V3.30725H52.8543V4.14725H50.5543V5.72725H53.0943V6.59725H49.6143Z" fill="#B3B3B3"/>
<path d="M58.1345 6.59725L57.0645 0.997253H58.0645L58.8245 4.93725L60.1545 0.997253H60.6945L62.0145 4.93725L62.7545 0.997253H63.6945L62.6245 6.59725H61.6245L60.3845 2.75725L59.1445 6.59725H58.1445H58.1345Z" fill="#B3B3B3"/>
<path d="M65.3047 6.59725V0.997253H66.2447V6.59725H65.3047Z" fill="#B3B3B3"/>
<path d="M69.3546 6.59725V1.86725H67.6846V0.997253H71.9646V1.86725H70.3046V6.59725H69.3546Z" fill="#B3B3B3"/>
<path d="M73.3643 6.59725V0.997253H74.3043V3.29725H76.4143V0.997253H77.3543V6.59725H76.4243V4.11725H74.3143V6.59725H73.3643Z" fill="#B3B3B3"/>
<path d="M8.47461 27.5673C7.01352 27.5778 5.55962 27.3619 4.16461 26.9273C2.89768 26.5366 1.7261 25.8861 0.724609 25.0173L3.42461 21.8073C4.19701 22.416 5.07502 22.877 6.01461 23.1673C6.88956 23.436 7.79935 23.5741 8.71461 23.5773C9.05677 23.602 9.39983 23.5437 9.71461 23.4073C9.80335 23.3646 9.87842 23.298 9.93141 23.215C9.9844 23.1319 10.0132 23.0358 10.0146 22.9373V22.9373C10.0025 22.814 9.95429 22.697 9.87603 22.601C9.79777 22.5049 9.69292 22.4341 9.57461 22.3973C9.04305 22.1864 8.48963 22.0355 7.92461 21.9473C7.07794 21.774 6.26794 21.5707 5.49461 21.3373C4.79228 21.1329 4.11985 20.837 3.49461 20.4573C2.93284 20.1169 2.45717 19.6515 2.10461 19.0973C1.74433 18.4938 1.56392 17.7999 1.58461 17.0973V17.0973C1.57879 16.4082 1.72207 15.7259 2.00461 15.0973C2.2877 14.4718 2.70812 13.9181 3.23461 13.4773C3.82425 12.99 4.50374 12.6231 5.23461 12.3973C6.12522 12.1242 7.05318 11.9926 7.98461 12.0073C9.28997 11.9601 10.5949 12.1118 11.8546 12.4573C12.9418 12.784 13.9591 13.3096 14.8546 14.0073L12.3946 17.4173C11.7038 16.9147 10.9329 16.5326 10.1146 16.2873C9.38265 16.0587 8.62139 15.9374 7.85461 15.9273C7.56756 15.9063 7.2803 15.9652 7.02461 16.0973C6.94305 16.1408 6.87484 16.2057 6.82729 16.2849C6.77973 16.3642 6.75461 16.4549 6.75461 16.5473C6.76681 16.6639 6.81181 16.7746 6.88437 16.8666C6.95694 16.9587 7.05411 17.0283 7.16461 17.0673C7.67818 17.2803 8.2153 17.4314 8.76461 17.5173C9.65634 17.6704 10.538 17.8775 11.4046 18.1373C12.1125 18.3542 12.7859 18.6707 13.4046 19.0773C13.9311 19.4335 14.369 19.9056 14.6846 20.4573C15.0074 21.0517 15.1662 21.7213 15.1446 22.3973V22.3973C15.156 23.1386 14.9915 23.872 14.6646 24.5373C14.3486 25.1705 13.8899 25.7216 13.3246 26.1473C12.6952 26.606 11.9867 26.945 11.2346 27.1473C10.3392 27.4174 9.40986 27.5588 8.47461 27.5673Z" fill="#FC4C02"/>
<path d="M19.3145 16.4572H14.8545V12.1772H28.8545V16.4572H24.3645V27.2872H19.3145V16.4572Z" fill="#FC4C02"/>
<path d="M29.5244 12.1773H36.8544C37.9823 12.1435 39.1079 12.299 40.1844 12.6373C40.9696 12.8953 41.6872 13.3259 42.2844 13.8973C42.7188 14.3413 43.0589 14.8685 43.2844 15.4473C43.5246 16.0863 43.6433 16.7646 43.6344 17.4473C43.6661 18.4412 43.3864 19.4201 42.8344 20.2473C42.2783 21.0306 41.5267 21.6547 40.6544 22.0573L44.1744 27.1973H38.4944L35.6444 22.8773H34.5744V27.1973H29.5244V12.1773ZM36.7544 19.3673C37.2575 19.3949 37.756 19.258 38.1744 18.9773C38.3427 18.8533 38.478 18.6901 38.5686 18.5019C38.6593 18.3136 38.7025 18.106 38.6944 17.8973V17.8973C38.7088 17.6862 38.6685 17.475 38.5774 17.284C38.4863 17.0931 38.3475 16.9289 38.1744 16.8073C37.7548 16.5486 37.2667 16.4231 36.7744 16.4473H34.5744V19.4473H36.7544V19.3673Z" fill="#FC4C02"/>
<path d="M73.465 20.7873L76.765 27.2873H81.605L73.465 11.2273L65.335 27.2873H70.175L73.465 20.7873Z" fill="#FC4C02"/>
<path d="M50.8351 20.7873L54.1251 27.2873H58.9651L50.8351 11.2273L42.7051 27.2873H47.5451L50.8351 20.7873Z" fill="#FC4C02"/>
<path d="M62.1544 18.6772L58.8644 12.1772H54.0244L62.1544 28.2272L70.2844 12.1772H65.4444L62.1544 18.6772Z" fill="#FC4C02"/>
</g>
<defs>
<clipPath id="clip0_75_340">
<rect width="80.88" height="27.3501" fill="white" transform="translate(0.724609 0.877197)"/>
</clipPath>
</defs>
</svg>
