<svg width="23" height="23" viewBox="0 0 23 23" fill="none" xmlns="http://www.w3.org/2000/svg">
<path fill-rule="evenodd" clip-rule="evenodd" d="M11.4302 2.54776C6.33609 2.54776 2.19133 6.68991 2.19133 11.784C2.19133 16.8727 6.33609 21.0175 11.4302 21.0175C16.5189 21.0175 20.6637 16.8727 20.6637 11.784C20.6637 6.68991 16.5189 2.54784 11.4302 2.54784M11.4302 22.8573C5.32263 22.8573 0.351562 17.8862 0.351562 11.784C0.351562 5.67645 5.32263 0.710754 11.4302 0.710754C17.5324 0.710754 22.5035 5.67645 22.5035 11.784C22.5035 17.8862 17.5324 22.8573 11.4302 22.8573Z" fill="#94B028"/>
<path fill-rule="evenodd" clip-rule="evenodd" d="M16.8218 9.60123C16.8274 9.7091 16.8301 9.81704 16.8301 9.92491C16.8301 13.2338 14.3097 17.0518 9.70043 17.0518C8.2867 17.0518 6.96703 16.6396 5.86035 15.9285C6.05677 15.9508 6.25595 15.9646 6.45797 15.9646C7.6338 15.9646 8.70997 15.5605 9.5704 14.8911C8.47208 14.8689 7.54794 14.1468 7.22977 13.1508C7.38203 13.1785 7.53973 13.1951 7.7002 13.1951C7.92247 13.1953 8.14381 13.1664 8.35861 13.1093C7.21321 12.8797 6.35278 11.8644 6.35278 10.6526V10.6194C6.70014 10.8136 7.08934 10.9208 7.48714 10.932C6.81477 10.4838 6.37218 9.71745 6.37218 8.84867C6.37218 8.38943 6.49669 7.9578 6.7125 7.58712C7.94638 9.1032 9.79174 10.102 11.8751 10.2071C11.8306 10.0195 11.8083 9.82727 11.8087 9.63442C11.8087 8.25389 12.9319 7.12781 14.3152 7.12781C15.0346 7.12781 15.6876 7.43493 16.144 7.92184C16.7139 7.81121 17.2479 7.59816 17.7349 7.31319C17.5467 7.89969 17.1484 8.38943 16.6337 8.69932C17.14 8.63845 17.6214 8.50558 18.0696 8.30372C17.7346 8.80734 17.312 9.24679 16.8218 9.60123Z" fill="#94B028"/>
</svg>
