<svg width="90" height="31" viewBox="0 0 90 31" fill="none" xmlns="http://www.w3.org/2000/svg">
<path d="M34.3602 0.593416L22.7077 29.6079H15.1056L9.37158 6.45098C9.02346 5.02469 8.72262 4.50265 7.6625 3.90175C5.93395 2.92251 3.07946 2.00471 0.570312 1.43429L0.738578 0.593416H12.9761C14.5359 0.593416 15.9381 1.67765 16.2923 3.55244L19.3206 20.3409L26.8045 0.593416H34.3602ZM64.1469 20.1362C64.1775 12.4784 54.0009 12.0565 54.0709 8.63541C54.0927 7.59424 55.0443 6.48727 57.1215 6.20423C58.1519 6.06344 60.9911 5.95604 64.2136 7.5028L65.4768 1.3501C63.7432 0.690179 61.5168 0.0612183 58.7466 0.0612183C51.6382 0.0612183 46.6357 4.00529 46.5935 9.65288C46.5472 13.8301 50.1628 16.1612 52.8884 17.5492C55.6914 18.9707 56.632 19.8841 56.6213 21.1556C56.6014 23.1025 54.3861 23.9617 52.315 23.9951C48.6994 24.0532 46.6032 22.9743 44.9308 22.1629L43.6273 28.5198C45.3076 29.3244 48.4092 30.0264 51.6252 30.0612C59.181 30.0612 64.1228 26.1665 64.146 20.1338M82.9166 29.6079H89.568L83.7621 0.593416H77.623C76.9674 0.58765 76.3253 0.787491 75.7798 1.16705C75.2344 1.54661 74.8106 2.08839 74.5636 2.72221L63.7705 29.6079H71.3221L72.8216 25.2734H82.0461L82.9166 29.6079ZM74.8923 19.3263L78.6775 8.43124L80.8562 19.3258L74.8923 19.3263ZM44.635 0.593416L38.6883 29.6079H31.4969L37.446 0.593416H44.635Z" fill="#1434CB"/>
</svg>
